<?xml version="1.0" encoding="utf-8"?>
<!-- Generator: Adobe Illustrator 16.2.1, SVG Export Plug-In . SVG Version: 6.00 Build 0)  -->
<!DOCTYPE svg PUBLIC "-//W3C//DTD SVG 1.1//EN" "http://www.w3.org/Graphics/SVG/1.1/DTD/svg11.dtd">
<svg version="1.1" id="Layer_1" xmlns="http://www.w3.org/2000/svg" xmlns:xlink="http://www.w3.org/1999/xlink" x="0px" y="0px"
	 width="42.167px" height="37.458px" viewBox="32.833 39.167 42.167 37.458" enable-background="new 32.833 39.167 42.167 37.458"
	 xml:space="preserve">
<path fill="#E5EFEE" stroke="#D1DBDA" stroke-width="3" stroke-miterlimit="10" d="M72.666,49.218v22.033
	c0,1.773-1.435,3.208-3.209,3.208H37.382c-1.771,0-3.207-1.435-3.207-3.208V49.312"/>
<g>
	<g>
		<path fill="#6C6666" d="M56.33,40.167c1.027,0,1.235,0.913,0.934,2.17L54.35,63.61c-0.514,1.195-1.354,1.195-1.867,0
			l-2.913-21.273c-0.282-1.342-0.093-2.17,0.933-2.17H56.33z"/>
	</g>
	<g>
		<path fill="#6C6666" d="M58.36,58.188c1.008-0.019,1.694,0.542,1.775,1.362c0.085,0.857-0.425,1.72-0.91,2.385
			c-1.082,1.484-2.217,2.953-3.342,4.406c-0.298,0.386-0.593,0.774-0.886,1.164c-1.142,1.284-1.946,1.215-3.169,0
			c-1.458-1.938-2.878-3.908-4.373-5.815c-0.56-0.713-0.961-1.57-0.718-2.497c0.208-0.787,0.977-1.005,1.728-1.005
			C48.466,58.188,58.126,58.193,58.36,58.188z"/>
	</g>
</g>
</svg>
